<svg xmlns="http://www.w3.org/2000/svg" width="108" height="100" viewBox="0 0 108 100" fill="none">
<path d="M64.326 67.15C66.9485 66.1509 69.1534 64.2901 70.579 61.8729L75.3019 53.8644C81.7017 43.0126 98.3325 47.5514 98.3325 60.1497V79.2821C98.3325 86.1155 92.793 91.6551 85.9596 91.6551H67.235C53.4966 91.6551 49.9919 72.6106 62.8303 67.7198L64.326 67.15Z" fill="#8EC180"/>
<path d="M42.2568 50.9502C42.0791 53.7508 42.8587 56.5287 44.4677 58.8279L49.7984 66.4454C57.0217 76.7673 45.9982 90.0213 34.5329 84.7997L17.1212 76.8699C10.9023 74.0376 8.15695 66.7003 10.9892 60.4815L18.7499 43.4409C24.444 30.9381 43.2283 35.642 42.3582 49.3528L42.2568 50.9502Z" fill="#00BEFD"/>
<path d="M65.5885 42.8502C63.41 41.0812 60.6949 40.1052 57.8887 40.0825L48.5916 40.0074C35.9937 39.9055 31.5896 23.2385 42.4927 16.9267L59.0508 7.34124C64.9647 3.91768 72.5343 5.93651 75.9578 11.8504L85.3389 28.0555C92.2219 39.9453 77.4958 52.5198 66.831 43.8593L65.5885 42.8502Z" fill="#D5FF00"/>
</svg>
